<?xml version="1.0" encoding="UTF-8" standalone="no"?>
<svg xmlns="http://www.w3.org/2000/svg" height="40" width="56" version="1.1" viewBox="0 0 14.816666 10.583334">
	<g transform="translate(-.000096037 -281.61)">
		<path d="m5.3058 281.61c-0.17373 0-0.34731 0.0663-0.48043 0.19911l-4.205 4.1935-0.00022609 0.00022-0.42052 0.4194c-0.14976 0.14936-0.21519 0.35011-0.19647 0.54432 0.00208 0.0215 0.0051095 0.0429 0.0092695 0.0642v0.00023c0.02496 0.12805 0.087358 0.25037 0.1872 0.34994l0.42052 0.4194 0.00022609 0.00023 4.205 4.2c0.26624 0.26553 0.69485 0.26553 0.96109 0l0.42052-0.4194c0.26624-0.26553 0.26624-0.693 0-0.95853l-2.9737-2.9658-0.27017-0.26945c-0.26624-0.26552-0.26624-0.69322 0-0.95875l0.69838-0.69652 2.5455-2.5387c0.26624-0.26553 0.26624-0.693 0-0.95853l-0.42052-0.41936c-0.13312-0.13277-0.30693-0.19911-0.48066-0.19911zm4.2052 0c-0.17373 0-0.34754 0.0663-0.48066 0.19911l-0.42052 0.41939c-0.26624 0.26553-0.26624 0.693 0 0.95853l2.9737 2.9658 0.27017 0.26945c0.26624 0.26553 0.26624 0.69323 0 0.95875l-0.69815 0.6963-2.5457 2.5389c-0.26624 0.26553-0.26624 0.693 0 0.95853l0.42052 0.4194c0.26624 0.26553 0.69485 0.26553 0.96109 0l4.6257-4.6132c0.13312-0.13276 0.19963-0.3061 0.19963-0.47937 0-0.0216-0.0011-0.0434-0.0032-0.0649-0.0021-0.0216-0.0051-0.043-0.0093-0.0642v-0.00023c-0.02496-0.12805-0.08736-0.25037-0.1872-0.34995l-0.42052-0.4194-4.2052-4.1938c-0.134-0.15-0.3076-0.22-0.4813-0.22zm-2.1026 2.0968c-0.17373 0-0.34754 0.0665-0.48066 0.19933l-2.5229 2.5162c-0.26624 0.26553-0.26624 0.69322 0 0.95875l0.42052 0.4194c0.26624 0.26554 0.69485 0.26554 0.96109 0l2.5231-2.5164c0.26624-0.26553 0.26624-0.69299 0-0.95853l-0.42052-0.41939c-0.13312-0.13277-0.30693-0.19933-0.48066-0.19933zm2.1026 2.097c-0.17373 0-0.34754 0.0663-0.48066 0.1991l-2.5231 2.5164c-0.26624 0.26553-0.26624 0.693 0 0.95853l0.42052 0.4194c0.26624 0.26553 0.69507 0.26553 0.96131 0l2.5229-2.5162c0.26624-0.26553 0.26624-0.69322 0-0.95875l-0.42052-0.4194c-0.13312-0.13276-0.3067-0.1991-0.48043-0.1991z" fill="#fff"/>
	</g>
</svg>
